<svg version="1.2" xmlns="http://www.w3.org/2000/svg" viewBox="0 0 900 562" width="900" height="562">
	<title>shape-1-svg</title>
	<style>
		.s0 { fill: #dc143c } 
	</style>
	<path id="Layer" class="s0" d="m0 376l16.7 19.2c16.6 19.1 50 57.5 83.3 79.3 33.3 21.8 66.7 27.2 100 29.7 33.3 2.5 66.7 2.1 100 1 33.3-1.2 66.7-3.2 100-8.5 33.3-5.4 66.7-14 100-19.2 33.3-5.2 66.7-6.8 100-1.3 33.3 5.5 66.7 18.1 100 25.8 33.3 7.7 66.7 10.3 100 8.5 33.3-1.8 66.7-8.2 83.3-11.3l16.7-3.2v105h-16.7c-16.6 0-50 0-83.3 0-33.3 0-66.7 0-100 0-33.3 0-66.7 0-100 0-33.3 0-66.7 0-100 0-33.3 0-66.7 0-100 0-33.3 0-66.7 0-100 0-33.3 0-66.7 0-100 0-33.3 0-66.7 0-100 0-33.3 0-66.7 0-83.3 0h-16.7z"/>
</svg>