<svg id="visual" viewBox="0 0 900 600" width="900" height="600" xmlns="http://www.w3.org/2000/svg" xmlns:xlink="http://www.w3.org/1999/xlink" version="1.1"><path d="M0 374L30 392C60 410 120 446 180 456.7C240 467.3 300 452.7 360 436.7C420 420.7 480 403.3 540 426.7C600 450 660 514 720 543.7C780 573.3 840 568.7 870 566.3L900 564L900 601L870 601C840 601 780 601 720 601C660 601 600 601 540 601C480 601 420 601 360 601C300 601 240 601 180 601C120 601 60 601 30 601L0 601Z" fill="#DC143C" stroke-linecap="round" stroke-linejoin="miter"></path></svg>