<svg id="visual" viewBox="0 0 900 600" width="900" height="600" xmlns="http://www.w3.org/2000/svg" xmlns:xlink="http://www.w3.org/1999/xlink" version="1.1"><path d="M260 0L267.5 14.3C275 28.7 290 57.3 304.5 85.8C319 114.3 333 142.7 340.2 171.2C347.3 199.7 347.7 228.3 332.2 257C316.7 285.7 285.3 314.3 265.7 343C246 371.7 238 400.3 239 428.8C240 457.3 250 485.7 263 514.2C276 542.7 292 571.3 300 585.7L308 600L0 600L0 585.7C0 571.3 0 542.7 0 514.2C0 485.7 0 457.3 0 428.8C0 400.3 0 371.7 0 343C0 314.3 0 285.7 0 257C0 228.3 0 199.7 0 171.2C0 142.7 0 114.3 0 85.8C0 57.3 0 28.7 0 14.3L0 0Z" fill="#DC143C" stroke-linecap="round" stroke-linejoin="miter"></path></svg>