<svg id="visual" viewBox="0 0 1000 370" width="1000" height="370" xmlns="http://www.w3.org/2000/svg" xmlns:xlink="http://www.w3.org/1999/xlink" version="1.1"><path d="M0 294L23.8 295.7C47.7 297.3 95.3 300.7 143 305.7C190.7 310.7 238.3 317.3 286 323.3C333.7 329.3 381.3 334.7 428.8 328C476.3 321.3 523.7 302.7 571.2 297.2C618.7 291.7 666.3 299.3 714 308.2C761.7 317 809.3 327 857 328C904.7 329 952.3 321 976.2 317L1000 313L1000 371L976.2 371C952.3 371 904.7 371 857 371C809.3 371 761.7 371 714 371C666.3 371 618.7 371 571.2 371C523.7 371 476.3 371 428.8 371C381.3 371 333.7 371 286 371C238.3 371 190.7 371 143 371C95.3 371 47.7 371 23.8 371L0 371Z" fill="#DC143C" stroke-linecap="round" stroke-linejoin="miter"></path></svg>